<svg width="16" height="16" viewBox="0 0 16 16" fill="none" xmlns="http://www.w3.org/2000/svg">
<g clip-path="url(#clip0_258_480)">
<path d="M0.477295 8.00002C0.477295 12.1595 3.84056 15.5227 8.00002 15.5227C12.1595 15.5227 15.5227 12.1595 15.5227 8.00002C15.5227 3.84056 12.1595 0.477295 8.00002 0.477295C3.84056 0.477295 0.477295 3.84056 0.477295 8.00002ZM1.83291 8.00002C1.83291 4.58729 4.58729 1.83291 8.00002 1.83291C11.4128 1.83291 14.1671 4.58729 14.1671 8.00002C14.1671 11.4128 11.4128 14.1671 8.00002 14.1671C4.58729 14.1671 1.83291 11.4128 1.83291 8.00002Z" fill="#FFAE00" stroke="#FFAE00" stroke-width="0.5"/>
<path d="M10.5504 5.70183L10.6554 10.0048L10.5504 5.70183ZM10.5504 5.70183L6.24742 5.59688L10.5504 5.70183ZM10.5504 5.70183L5.6527 10.5995L10.5504 5.70183Z" fill="#FFAE00"/>
<path d="M10.5504 5.70183L10.6554 10.0048M10.5504 5.70183L6.24742 5.59688M10.5504 5.70183L5.6527 10.5995" stroke="#FFAE00" stroke-width="2" stroke-linecap="round" stroke-linejoin="round"/>
</g>
<defs>
<clipPath id="clip0_258_480">
<rect width="16" height="16" fill="white"/>
</clipPath>
</defs>
</svg>
