<svg width="20" height="20" viewBox="0 0 20 20" fill="none" xmlns="http://www.w3.org/2000/svg">
<g clip-path="url(#clip0_258_453)">
<path d="M6.47558 12.0769V15.5384M10.0142 12.0769V15.5384M13.5527 12.0769V15.5384M17.6009 8.61535H2.42745C2.22502 8.61366 2.02458 8.65448 1.83965 8.73503C1.65473 8.81559 1.48961 8.93401 1.35546 9.0823C1.2213 9.2306 1.12122 9.40532 1.06198 9.59467C1.00273 9.78403 0.985694 9.98361 1.01202 10.18L2.04528 17.7953C2.0902 18.1305 2.25893 18.4381 2.51967 18.66C2.7804 18.8819 3.11512 19.0028 3.46071 18.9999H16.5393C16.8849 19.0028 17.2196 18.8819 17.4803 18.66C17.7411 18.4381 17.9098 18.1305 17.9547 17.7953L18.988 10.18C19.014 9.98592 18.9977 9.7887 18.9401 9.60129C18.8825 9.41387 18.785 9.24053 18.6539 9.09269C18.5228 8.94485 18.3612 8.82586 18.1797 8.74358C17.9982 8.6613 17.8009 8.6176 17.6009 8.61535Z" stroke="white" stroke-width="1.2" stroke-linecap="round" stroke-linejoin="round"/>
<path d="M13.5244 2.44C14.3723 2.58329 15.1491 2.99355 15.7368 3.60839C16.3244 4.22322 16.6907 5.00898 16.7799 5.84615L17.0913 8.61537M2.93701 8.61537L3.24841 5.84615C3.34341 5.01394 3.71228 4.23447 4.29944 3.62513C4.8866 3.01579 5.66026 2.60959 6.5039 2.46769" stroke="white" stroke-width="1.2" stroke-linecap="round" stroke-linejoin="round"/>
<path d="M13.5527 2.73077C13.5527 2.95805 13.507 3.18311 13.4181 3.3931C13.3291 3.60309 13.1988 3.79389 13.0345 3.9546C12.8702 4.11532 12.6752 4.24281 12.4605 4.32978C12.2459 4.41676 12.0158 4.46153 11.7834 4.46153H8.24487C7.77563 4.46153 7.3256 4.27918 6.9938 3.9546C6.66199 3.63002 6.47559 3.18979 6.47559 2.73077C6.47559 2.27174 6.66199 1.83151 6.9938 1.50693C7.3256 1.18235 7.77563 1 8.24487 1H11.7834C12.2527 1 12.7027 1.18235 13.0345 1.50693C13.3663 1.83151 13.5527 2.27174 13.5527 2.73077Z" stroke="white" stroke-width="1.2" stroke-linecap="round" stroke-linejoin="round"/>
</g>
<defs>
<clipPath id="clip0_258_453">
<rect width="20" height="20" fill="white"/>
</clipPath>
</defs>
</svg>
