<svg width="20" height="20" viewBox="0 0 20 20" fill="none" xmlns="http://www.w3.org/2000/svg">
<path d="M17.0962 1.3266C17.5317 0.891132 18.2377 0.891132 18.6732 1.3266C19.1087 1.76207 19.1087 2.46811 18.6732 2.90358L2.90356 18.6734C2.4681 19.1089 1.76207 19.1089 1.3266 18.6734C0.891134 18.2379 0.891133 17.5319 1.3266 17.0964L17.0962 1.3266Z" fill="white"/>
<path d="M2.90377 1.3266C2.46831 0.891132 1.76227 0.891132 1.32681 1.3266C0.891342 1.76207 0.891342 2.46811 1.32681 2.90358L17.0964 18.6734C17.5319 19.1089 18.2379 19.1089 18.6734 18.6734C19.1089 18.2379 19.1089 17.5319 18.6734 17.0964L2.90377 1.3266Z" fill="white"/>
</svg>
