<svg width="30" height="30" viewBox="0 0 30 30" fill="none" xmlns="http://www.w3.org/2000/svg">
<path d="M15 9.22223V15L18.6111 18.6111" stroke="#FFAE00" stroke-width="2" stroke-linecap="round" stroke-linejoin="round"/>
<path d="M5.76166 5.76165L5.05455 5.05455L5.05455 5.05455L5.76166 5.76165ZM3.93244 7.59087L2.93246 7.59589C2.93521 8.14425 3.37906 8.5881 3.92742 8.59086L3.93244 7.59087ZM7.60432 8.60933C8.1566 8.61211 8.60656 8.16665 8.60933 7.61437C8.61211 7.06209 8.16665 6.61213 7.61437 6.60936L7.60432 8.60933ZM4.91395 3.90894C4.91118 3.35666 4.46122 2.9112 3.90894 2.91398C3.35666 2.91675 2.9112 3.36671 2.91398 3.91899L4.91395 3.90894ZM3 15C3 14.4477 2.55228 14 2 14C1.44772 14 1 14.4477 1 15H3ZM22.0007 27.1264C22.4788 26.8499 22.6421 26.2381 22.3656 25.7601C22.089 25.282 21.4773 25.1186 20.9992 25.3952L22.0007 27.1264ZM25.3952 20.9992C25.1186 21.4773 25.282 22.089 25.7601 22.3656C26.2381 22.6421 26.8499 22.4788 27.1264 22.0007L25.3952 20.9992ZM5.15021 5.05104C4.75775 5.43961 4.75459 6.07277 5.14317 6.46523C5.53174 6.8577 6.1649 6.86085 6.55736 6.47227L5.15021 5.05104ZM24.8533 5.14693C19.3672 -0.339128 10.503 -0.393892 5.05455 5.05455L6.46876 6.46876C11.1228 1.81474 18.7206 1.8427 23.4391 6.56115L24.8533 5.14693ZM5.05455 5.05455L3.22534 6.88376L4.63955 8.29798L6.46876 6.46876L5.05455 5.05455ZM3.92742 8.59086L7.60432 8.60933L7.61437 6.60936L3.93747 6.59088L3.92742 8.59086ZM4.93243 7.58584L4.91395 3.90894L2.91398 3.91899L2.93246 7.59589L4.93243 7.58584ZM15 3C21.6274 3 27 8.37257 27 15H29C29 7.268 22.732 1 15 1V3ZM15 27C8.37257 27 3 21.6274 3 15H1C1 22.732 7.268 29 15 29V27ZM20.9992 25.3952C19.2352 26.4156 17.1874 27 15 27V29C17.5483 29 19.9405 28.3182 22.0007 27.1264L20.9992 25.3952ZM27 15C27 17.1874 26.4156 19.2352 25.3952 20.9992L27.1264 22.0007C28.3182 19.9405 29 17.5483 29 15H27ZM6.55736 6.47227C8.72654 4.3246 11.7076 3 15 3V1C11.1595 1 7.67862 2.54768 5.15021 5.05104L6.55736 6.47227Z" fill="white"/>
</svg>
