<svg width="30" height="30" viewBox="0 0 30 30" fill="none" xmlns="http://www.w3.org/2000/svg">
<path d="M19.01 3.66306C19.0797 3.23264 19.4867 2.94066 19.9173 3.01034C19.9439 3.01544 20.0297 3.03146 20.0746 3.04146C20.1644 3.06147 20.2898 3.09227 20.446 3.13777C20.7585 3.22876 21.195 3.37867 21.719 3.61881C22.7681 4.09962 24.1641 4.94069 25.6128 6.38894C27.0614 7.83718 27.9028 9.2328 28.3837 10.2815C28.6239 10.8054 28.7738 11.2418 28.8649 11.5542C28.9104 11.7104 28.9412 11.8357 28.9612 11.9255C28.9712 11.9705 28.9785 12.0065 28.9836 12.0331L28.9896 12.066C29.0593 12.4964 28.77 12.9201 28.3394 12.9898C27.9101 13.0593 27.5057 12.7687 27.4343 12.3403C27.4321 12.3288 27.426 12.2979 27.4195 12.2688C27.4065 12.2105 27.3841 12.118 27.3485 11.9958C27.2772 11.7511 27.1534 11.3877 26.9479 10.9396C26.5375 10.0445 25.7993 8.80849 24.4959 7.50545C23.1926 6.2024 21.9561 5.4645 21.0608 5.05414C20.6126 4.84871 20.249 4.72499 20.0043 4.65376C19.882 4.61814 19.7283 4.58287 19.6699 4.56988C19.2414 4.49848 18.9405 4.09225 19.01 3.66306Z" fill="#FFAE00"/>
<path fill-rule="evenodd" clip-rule="evenodd" d="M19.0304 7.56856C19.1493 7.15246 19.5829 6.91152 19.999 7.03041L19.7838 7.78382C19.999 7.03041 19.9986 7.0303 19.999 7.03041L20.0005 7.03084L20.0021 7.03131L20.0056 7.03232L20.0137 7.03474L20.0344 7.04118C20.0502 7.04621 20.0698 7.05278 20.0932 7.0611C20.1402 7.07775 20.2022 7.10143 20.2783 7.13403C20.4305 7.19926 20.6384 7.3 20.8939 7.45118C21.4052 7.75383 22.1033 8.25654 22.9234 9.07663C23.7435 9.89673 24.2462 10.5948 24.5489 11.1062C24.7001 11.3616 24.8008 11.5696 24.866 11.7218C24.8986 11.7979 24.9223 11.8599 24.939 11.9068C24.9473 11.9303 24.9539 11.9499 24.9589 11.9657L24.9653 11.9864L24.9677 11.9944L24.9688 11.9979L24.9692 11.9995C24.9693 11.9999 24.9696 12.001 24.2163 12.2163L24.9696 12.001C25.0885 12.4172 24.8476 12.8508 24.4315 12.9697C24.0189 13.0876 23.5891 12.8518 23.4659 12.4421L23.4621 12.4309C23.4565 12.4152 23.445 12.3842 23.4256 12.3391C23.387 12.2489 23.3169 12.1014 23.2003 11.9043C22.9673 11.5107 22.5466 10.916 21.8153 10.1847C21.084 9.45348 20.4893 9.03276 20.0957 8.79981C19.8987 8.68319 19.7512 8.6131 19.6609 8.57444C19.6158 8.5551 19.5849 8.54357 19.5692 8.538L19.558 8.53414C19.1483 8.41099 18.9124 7.98112 19.0304 7.56856Z" fill="#FFAE00"/>
<path d="M27.2485 23.1301V23.1292C27.2485 23.1291 27.2485 23.1291 27.2485 23.129C26.9035 23.0947 26.6177 23.0616 26.3951 23.0295M27.2485 23.1301L7.97025 4.61012C8.27645 6.74678 8.90114 8.82537 9.82344 10.7766L6.63111 13.0578L6.13977 13.409L6.37797 13.9639C8.43327 18.752 12.2489 22.5678 17.0367 24.6232L17.5916 24.8614L17.9427 24.3702L20.2248 21.1782C22.1773 22.1002 24.2572 22.7243 26.3951 23.0295M27.2485 23.1301V28.4341V28.4344M27.2485 23.1301V28.4344M26.3951 23.0295C26.3949 23.0294 26.3947 23.0294 26.3945 23.0294L26.5016 22.2871L26.3956 23.0295C26.3954 23.0295 26.3952 23.0295 26.3951 23.0295ZM27.2485 28.4344C27.2486 28.6243 27.1766 28.8072 27.0472 28.9461C26.9178 29.085 26.7405 29.1696 26.5511 29.1829L26.551 29.1829M27.2485 28.4344L26.551 29.1829M26.551 29.1829C25.9048 29.2283 25.3891 29.2501 24.9987 29.2501M26.551 29.1829L24.9987 29.2501M2.56591 3.75006H2.56557C2.37572 3.74998 2.1929 3.82191 2.054 3.95135C1.9151 4.08079 1.83046 4.25811 1.81716 4.44752L2.56591 3.75006ZM2.56591 3.75006L7.86962 3.75006L7.87034 3.75006M2.56591 3.75006L7.87034 3.75006M7.87034 3.75006C7.90478 4.09844 7.93799 4.38641 7.97022 4.60992L7.87034 3.75006ZM24.9987 29.2501C12.1582 29.2501 1.75 18.8414 1.75 6.00006M24.9987 29.2501L1.75 6.00006M1.75 6.00006C1.75 5.61063 1.77176 5.09493 1.81716 4.44756L1.75 6.00006ZM27.9985 23.1301V28.4341L27.3265 22.3831C27.5114 22.402 27.6826 22.4889 27.807 22.6269C27.9315 22.7649 27.9987 22.9442 27.9985 23.1301Z" stroke="white" stroke-width="1.5"/>
</svg>
