<svg width="39" height="30" viewBox="0 0 39 30" fill="none" xmlns="http://www.w3.org/2000/svg">
<mask id="mask0_1001_3183" style="mask-type:alpha" maskUnits="userSpaceOnUse" x="2" y="3" width="37" height="27">
<path d="M30.5609 13.1694V5.89514C30.5609 4.29849 29.2126 3.00006 27.5544 3.00006H5.00636C3.3483 3.00006 2 4.29843 2 5.89514V20.3705C2 21.9671 3.3483 23.2655 5.00643 23.2655H21.8622C22.847 26.602 26.033 29.0556 29.8093 29.0556C31.2626 29.0556 32.6917 28.6874 33.9438 27.9898C34.3029 27.7898 34.4261 27.3473 34.2176 27.001C34.0099 26.6546 33.5497 26.5352 33.1908 26.7374C32.1675 27.307 30.9983 27.6081 29.8093 27.6081C26.0791 27.6081 23.0448 24.6862 23.0448 21.0942C23.0448 17.5023 26.0792 14.5803 29.8093 14.5803C33.5393 14.5803 36.5737 17.5023 36.5737 21.0942V21.818C36.5737 22.616 35.8991 23.2655 35.0705 23.2655C34.2419 23.2655 33.5673 22.616 33.5673 21.818V18.9229C33.5673 18.5229 33.2311 18.1992 32.8157 18.1992C32.6136 18.1992 32.4319 18.2779 32.297 18.4027C31.6326 17.8327 30.767 17.4754 29.8093 17.4754C27.7372 17.4754 26.0513 19.0989 26.0513 21.0941C26.0513 23.0895 27.7372 24.713 29.8093 24.713C30.9294 24.713 31.9253 24.2292 32.6145 23.4779C33.159 24.2228 34.0547 24.713 35.0706 24.713C36.7286 24.713 38.0769 23.4147 38.0769 21.818V21.0941C38.0769 16.9485 34.7683 13.5368 30.5609 13.1694ZM5.00643 4.44757H27.5545C27.5858 4.44757 27.612 4.46297 27.6429 4.46481L16.8985 12.9575C16.5161 13.1893 15.962 13.1413 15.7131 12.9942L4.91899 4.46467C4.9495 4.46291 4.97543 4.44757 5.00643 4.44757ZM29.0577 13.1694C24.8503 13.5368 21.5416 16.9485 21.5416 21.0942C21.5416 21.3385 21.5572 21.5792 21.5797 21.818H5.00643C4.17779 21.818 3.50326 21.1685 3.50326 20.3705V5.89514C3.50326 5.69017 3.55025 5.49658 3.63044 5.31975L14.8258 14.1605C15.2632 14.4355 15.766 14.5804 16.2806 14.5804C16.7753 14.5804 17.259 14.4461 17.6847 14.1916C17.7273 14.1697 17.7676 14.1436 17.8057 14.1132L28.9305 5.31962C29.0107 5.49658 29.0578 5.69017 29.0578 5.89521L29.0577 13.1694ZM29.8093 23.2655C28.5659 23.2655 27.5545 22.2915 27.5545 21.0942C27.5545 19.8969 28.5659 18.9229 29.8093 18.9229C31.0528 18.9229 32.0641 19.8969 32.0641 21.0942C32.0641 22.2915 31.0528 23.2655 29.8093 23.2655Z" fill="black"/>
</mask>
<g mask="url(#mask0_1001_3183)">
<path d="M38.9598 1.24023H1.12305V35.5573H38.9598V1.24023Z" fill="white"/>
<path d="M39.0824 21.5397C39.0824 26.2441 35.2687 30.0578 30.5642 30.0578C25.8597 30.0578 21.5449 27.5525 21.5449 21.0386C21.5449 15.5268 25.8597 13.0215 30.5642 13.0215C35.2687 13.0215 39.0824 16.8352 39.0824 21.5397Z" fill="#FFAE00"/>
</g>
</svg>
