<svg width="30" height="30" viewBox="0 0 30 30" fill="none" xmlns="http://www.w3.org/2000/svg">
<g clip-path="url(#clip0_1001_3180)">
<path d="M5.19922 10.1204C5.19922 5.08332 9.58683 0.999939 14.9992 0.999939C20.4116 0.999939 24.7992 5.08332 24.7992 10.1204C24.7992 15.1181 21.6714 20.9498 16.7913 23.0353C15.6537 23.5215 14.3448 23.5215 13.2071 23.0353C8.32704 20.9498 5.19922 15.1181 5.19922 10.1204Z" stroke="white" stroke-width="1.5"/>
<path d="M17.7992 10.7999C17.7992 12.3463 16.5456 13.5999 14.9992 13.5999C13.4528 13.5999 12.1992 12.3463 12.1992 10.7999C12.1992 9.25354 13.4528 7.99994 14.9992 7.99994C16.5456 7.99994 17.7992 9.25354 17.7992 10.7999Z" stroke="#FFAE00" stroke-width="1.5"/>
<path d="M27.5447 19.9C28.4762 20.7434 29 21.6942 29 22.7C29 26.1794 22.732 29 15 29C7.26801 29 1 26.1794 1 22.7C1 21.6942 1.52377 20.7434 2.45525 19.9" stroke="white" stroke-width="1.5" stroke-linecap="round"/>
</g>
<defs>
<clipPath id="clip0_1001_3180">
<rect width="30" height="30" fill="white"/>
</clipPath>
</defs>
</svg>
