<svg width="20" height="20" viewBox="0 0 20 20" fill="none" xmlns="http://www.w3.org/2000/svg">
<path d="M7.83333 3.38302C8.59294 3.1414 9.42535 3 10.3333 3C13.8182 3 16.19 5.08296 17.6043 6.92028C18.3125 7.84044 18.6667 8.30052 18.6667 9.66667C18.6667 11.0328 18.3125 11.4929 17.6043 12.4131C16.19 14.2504 13.8182 16.3333 10.3333 16.3333C6.84843 16.3333 4.47664 14.2504 3.06241 12.4131C2.35414 11.4929 2 11.0328 2 9.66667C2 8.30052 2.35414 7.84044 3.06241 6.92028C3.46343 6.39929 3.94144 5.85854 4.5 5.35114" stroke="#A8B2BE" stroke-width="1.5" stroke-linecap="round"/>
<path d="M12.8333 9.6665C12.8333 11.0472 11.714 12.1665 10.3333 12.1665C8.95254 12.1665 7.83325 11.0472 7.83325 9.6665C7.83325 8.28579 8.95254 7.1665 10.3333 7.1665C11.714 7.1665 12.8333 8.28579 12.8333 9.6665Z" stroke="#A8B2BE" stroke-width="1.5"/>
</svg>
