<svg width="20" height="20" viewBox="0 0 20 20" fill="none" xmlns="http://www.w3.org/2000/svg">
<path d="M10.8333 1.66669H11.0608C13.7774 1.66669 15.1374 1.66669 16.0808 2.33169C16.3508 2.52169 16.5908 2.74835 16.7933 3.00252C17.4999 3.89085 17.4999 5.16919 17.4999 7.72752V9.84835C17.4999 12.3175 17.4999 13.5525 17.1091 14.5384C16.4808 16.1242 15.1524 17.3742 13.4674 17.9659C12.4199 18.3334 11.1091 18.3334 8.48409 18.3334C6.98575 18.3334 6.23575 18.3334 5.63742 18.1234C4.67492 17.785 3.91575 17.0709 3.55659 16.165C3.33325 15.6017 3.33325 14.8959 3.33325 13.485V10" stroke="white" stroke-width="1.5" stroke-linecap="round" stroke-linejoin="round"/>
<path d="M17.5 10C17.5 10.7367 17.2074 11.4431 16.6865 11.964C16.1656 12.4849 15.4591 12.7775 14.7225 12.7775C14.1675 12.7775 13.5133 12.6809 12.9742 12.825C12.7387 12.8884 12.524 13.0124 12.3515 13.1849C12.1791 13.3573 12.055 13.572 11.9917 13.8075C11.8475 14.3467 11.9442 15.0009 11.9442 15.5559C11.9442 15.9206 11.8723 16.2818 11.7327 16.6188C11.5932 16.9557 11.3886 17.2619 11.1307 17.5198C10.8727 17.7778 10.5666 17.9823 10.2296 18.1219C9.89259 18.2615 9.53141 18.3334 9.16667 18.3334M9.16667 5.00002H2.5M5.83333 1.66669V8.33335" stroke="white" stroke-width="1.5" stroke-linecap="round" stroke-linejoin="round"/>
</svg>
