<svg width="230" height="41" viewBox="0 0 230 41" fill="none" xmlns="http://www.w3.org/2000/svg">
<path d="M18.7439 28.7518C18.9146 29.1584 19 29.5452 19 29.9089C19 30.4886 18.7982 30.9811 18.3933 31.3889C17.9885 31.7967 17.4879 32 16.8927 32C15.9562 32 15.2745 31.4853 14.8489 30.456L13.955 28.2685H5.04498L4.1511 30.456C3.74625 31.4853 3.07612 32 2.13956 32C1.54325 32 1.03806 31.7967 0.622837 31.3889C0.207612 30.9811 0 30.4886 0 29.9089C0 29.6091 0.0853518 29.2234 0.254902 28.7518L7.47174 11.4789C7.85582 10.4926 8.53633 10 9.51557 10C10.4948 10 11.1765 10.4926 11.5594 11.4789L18.7439 28.7518ZM6.44983 24.6984H12.5179L9.51557 16.4001L6.44983 24.6984Z" fill="#466675"/>
<path d="M24.1401 32C23.5317 32 23.0223 31.7812 22.614 31.3449C22.2047 30.9086 22 30.3741 22 29.7415V12.2585C22 11.6046 22.2047 11.0642 22.614 10.6385C23.0223 10.2128 23.5419 10 24.1719 10H36.8281C37.4365 10 37.9504 10.2128 38.37 10.6385C38.7896 11.0642 39 11.6046 39 12.2585V29.7415C39 30.3741 38.7953 30.9086 38.386 31.3449C37.9766 31.7812 37.4683 32 36.8588 32C36.272 32 35.7728 31.7812 35.3635 31.3449C34.9541 30.9086 34.7494 30.3741 34.7494 29.7415V13.9944H26.2494V29.7415C26.2494 30.3741 26.0447 30.9086 25.6354 31.3449C25.226 31.7812 24.728 32 24.1401 32Z" fill="#466675"/>
<path d="M54.1785 32C52.1195 32 50.2353 31.5121 48.526 30.5362C46.8166 29.5603 45.4685 28.2371 44.4816 26.5642C43.4946 24.8913 43 23.0371 43 20.9994C43 18.9629 43.4946 17.1076 44.4816 15.4358C45.4685 13.7629 46.8224 12.4385 48.5421 11.4638C50.2617 10.4879 52.1505 10 54.2107 10C55.8245 10 57.3475 10.3265 58.7808 10.9805C60.214 11.6346 61.3977 12.5303 62.3317 13.6665C62.7768 14.1811 63 14.7167 63 15.2743C63 15.8111 62.8033 16.2723 62.4111 16.658C62.0177 17.0437 61.546 17.2365 60.9939 17.2365C60.3785 17.2365 59.8264 16.9577 59.3375 16.4001C57.979 14.8143 56.2697 14.0208 54.2107 14.0208C52.9155 14.0208 51.7525 14.3205 50.723 14.9212C49.6935 15.5218 48.8872 16.3524 48.3028 17.4131C47.7196 18.4749 47.4274 19.6808 47.4274 21.0319C47.4274 22.361 47.7196 23.5564 48.3028 24.6183C48.8872 25.6801 49.6935 26.5049 50.723 27.0951C51.7525 27.6841 52.9155 27.9792 54.2107 27.9792C56.2271 27.9792 57.9261 27.1857 59.3064 25.5988C59.8149 25.0423 60.3785 24.7635 60.9939 24.7635C61.546 24.7635 62.0131 24.9563 62.3949 25.342C62.7768 25.7277 62.9678 26.1889 62.9678 26.7245C62.9678 27.2612 62.7458 27.7968 62.2995 28.3335C61.3654 29.4697 60.1818 30.3654 58.7485 31.0183C57.3153 31.6724 55.7923 32 54.1785 32Z" fill="#466675"/>
<path d="M114.11 10C114.688 10 115.18 10.2138 115.583 10.6436C115.987 11.0723 116.188 11.5974 116.188 12.2189V29.7811C116.188 30.4026 115.987 30.9277 115.583 31.3564C115.18 31.7851 114.688 32 114.11 32C113.509 32 113.008 31.7851 112.605 31.3564C112.202 30.9277 112 30.4026 112 29.7811V12.2189C112 11.5753 112.196 11.0456 112.589 10.6273C112.983 10.2091 113.489 10 114.11 10ZM128.472 28.6228C128.824 29.0515 129 29.4906 129 29.9414C129 30.499 128.803 30.9811 128.411 31.3889C128.017 31.7967 127.562 32 127.046 32C126.404 32 125.846 31.7003 125.371 31.0996L117.584 21.8045C117.211 21.3538 117.025 20.8716 117.025 20.357C117.025 19.8853 117.223 19.4241 117.615 18.9733L124.998 10.7075C125.246 10.4496 125.484 10.2684 125.711 10.1603C125.939 10.0534 126.208 10 126.518 10C127.035 10 127.48 10.1987 127.852 10.5948C128.225 10.991 128.411 11.4684 128.411 12.0261C128.411 12.5407 128.203 13.0229 127.79 13.4736L121.617 20.3883L128.472 28.6228Z" fill="#466675"/>
<path d="M142.178 32C140.119 32 138.235 31.5121 136.525 30.5362C134.816 29.5603 133.468 28.2371 132.481 26.5642C131.493 24.8913 131 23.0371 131 20.9994C131 18.9629 131.493 17.1076 132.481 15.4358C133.468 13.7629 134.821 12.4385 136.541 11.4638C138.261 10.4879 140.151 10 142.21 10C143.824 10 145.347 10.3265 146.781 10.9805C148.214 11.6346 149.398 12.5303 150.332 13.6665C150.777 14.1811 151 14.7167 151 15.2743C151 15.8111 150.804 16.2723 150.411 16.658C150.019 17.0437 149.546 17.2365 148.994 17.2365C148.378 17.2365 147.826 16.9577 147.337 16.4001C145.979 14.8143 144.269 14.0208 142.21 14.0208C140.915 14.0208 139.753 14.3205 138.722 14.9212C137.693 15.5218 136.886 16.3524 136.302 17.4131C135.719 18.4749 135.427 19.6808 135.427 21.0319C135.427 22.361 135.719 23.5564 136.302 24.6183C136.886 25.6801 137.693 26.5049 138.722 27.0951C139.753 27.6841 140.915 27.9792 142.21 27.9792C144.227 27.9792 145.926 27.1857 147.306 25.5988C147.816 25.0423 148.378 24.7635 148.994 24.7635C149.546 24.7635 150.013 24.9563 150.395 25.342C150.777 25.7277 150.969 26.1889 150.969 26.7245C150.969 27.2612 150.746 27.7968 150.299 28.3335C149.365 29.4697 148.182 30.3654 146.748 31.0183C145.315 31.6724 143.792 32 142.178 32Z" fill="#466675"/>
<path d="M157.14 32C156.532 32 156.022 31.7812 155.614 31.3449C155.205 30.9086 155 30.3741 155 29.7415V12.2585C155 11.6046 155.205 11.0642 155.614 10.6385C156.022 10.2128 156.542 10 157.172 10H169.828C170.436 10 170.95 10.2128 171.37 10.6385C171.79 11.0642 172 11.6046 172 12.2585V29.7415C172 30.3741 171.795 30.9086 171.386 31.3449C170.977 31.7812 170.468 32 169.859 32C169.272 32 168.773 31.7812 168.363 31.3449C167.954 30.9086 167.749 30.3741 167.749 29.7415V13.9944H159.249V29.7415C159.249 30.3741 159.045 30.9086 158.635 31.3449C158.226 31.7812 157.728 32 157.14 32Z" fill="#466675"/>
<path d="M179.166 31C178.562 31 178.051 30.7931 177.631 30.3794C177.21 29.9657 177 29.4612 177 28.8682V12.1318C177 11.517 177.21 11.0079 177.631 10.6045C178.051 10.2011 178.562 10 179.166 10H189.607C190.19 10 190.669 10.1862 191.046 10.5574C191.423 10.9286 191.612 11.3894 191.612 11.9411C191.612 12.4927 191.418 12.9535 191.03 13.3247C190.642 13.6959 190.168 13.8821 189.607 13.8821H181.364V18.1458H187.021C187.56 18.1458 188.014 18.3205 188.379 18.6698C188.746 19.0204 188.929 19.4605 188.929 19.9903C188.929 20.4994 188.746 20.9292 188.379 21.2798C188.014 21.6291 187.56 21.805 187.021 21.805H181.364V27.1179H189.996C190.578 27.1179 191.058 27.3029 191.434 27.6741C191.812 28.0465 192 28.5073 192 29.0589C192 29.6106 191.806 30.0714 191.418 30.4426C191.03 30.8138 190.556 31 189.996 31H179.166Z" fill="#466675"/>
<path d="M197.239 32C196.603 32 196.07 31.7812 195.642 31.3449C195.214 30.9086 195 30.3741 195 29.7415V12.2585C195 11.6046 195.214 11.0642 195.642 10.6385C196.07 10.2128 196.614 10 197.271 10H203.198C204.734 10 206.09 10.2897 207.264 10.8679C208.437 11.4462 209.354 12.2644 210.013 13.3228C210.671 14.3811 211 15.5978 211 16.9731C211 18.327 210.671 19.5379 210.013 20.6068C209.354 21.677 208.433 22.5059 207.247 23.0948C206.063 23.6848 204.712 23.9793 203.198 23.9793H199.445V29.7415C199.445 30.3741 199.231 30.9086 198.803 31.3449C198.375 31.7812 197.854 32 197.239 32ZM203.165 20.1161C204.174 20.1161 204.976 19.8323 205.568 19.2647C206.161 18.6971 206.457 17.9332 206.457 16.9731C206.457 16.0342 206.161 15.2869 205.568 14.7311C204.976 14.1741 204.174 13.8963 203.165 13.8963H199.445V20.1161H203.165Z" fill="#466675"/>
<path d="M220.985 32C220.399 32 219.901 31.7812 219.493 31.3449C219.085 30.9086 218.88 30.3741 218.88 29.7415V13.9944H213.948C213.404 13.9944 212.943 13.8028 212.566 13.4209C212.189 13.039 212 12.5648 212 11.9972C212 11.4296 212.189 10.9554 212.566 10.5735C212.943 10.1916 213.404 10 213.948 10H228.053C228.618 10 229.084 10.1916 229.451 10.5735C229.817 10.9554 230 11.4296 230 11.9972C230 12.5648 229.812 13.039 229.435 13.4209C229.058 13.8028 228.598 13.9944 228.053 13.9944H223.121V29.7415C223.121 30.3741 222.916 30.9086 222.508 31.3449C222.099 31.7812 221.592 32 220.985 32Z" fill="#466675"/>
<path fill-rule="evenodd" clip-rule="evenodd" d="M88.2965 40C97.169 40 104.708 34.1247 107 26.1751C104.216 18.4922 97.4877 12.0582 85.2883 12C89.7321 12.7344 95.8119 15.4383 96.1377 21.1026C96.1377 21.1037 96.1377 21.1049 96.1377 21.106C96.1377 21.1072 96.1377 21.1083 96.1377 21.1094C96.1377 21.1106 96.1377 21.1117 96.1377 21.1129C96.2537 26.1488 92.0513 30.3341 86.8727 30.3341C82.3375 30.3341 77.787 30.3386 73.2611 30.3386C67.2587 30.3306 63 34.3391 63 40C75.6225 40 75.6752 40 88.2965 40Z" fill="url(#paint0_linear_5_36)"/>
<path fill-rule="evenodd" clip-rule="evenodd" d="M107.08 26C107.677 24.11 108 22.0986 108 20.0154C108 9.12792 99.2012 1.00118 88.4579 1.00118C75.7563 1.00118 75.7028 1 63 1C63 6.91625 67.2971 11.1452 73.356 11.124C77.7891 11.1075 82.263 11.0427 86.6914 11.0992C96.3578 11.2241 104.487 17.0249 107.08 26Z" fill="url(#paint1_linear_5_36)"/>
<path fill-rule="evenodd" clip-rule="evenodd" d="M73 16.0324C79.6398 16.0324 90 15.1223 90 22.9448C82.0056 22.9448 73 24.0824 73 16.0324Z" fill="url(#paint2_linear_5_36)"/>
<defs>
<linearGradient id="paint0_linear_5_36" x1="63" y1="26.0006" x2="107" y2="26.0006" gradientUnits="userSpaceOnUse">
<stop stop-color="#FD9801"/>
<stop offset="1" stop-color="#C62700"/>
</linearGradient>
<linearGradient id="paint1_linear_5_36" x1="63" y1="13.5006" x2="108" y2="13.5006" gradientUnits="userSpaceOnUse">
<stop stop-color="#E2201E"/>
<stop offset="1" stop-color="#FE5301"/>
</linearGradient>
<linearGradient id="paint2_linear_5_36" x1="73" y1="19.5001" x2="90" y2="19.5001" gradientUnits="userSpaceOnUse">
<stop stop-color="#FE0400"/>
<stop offset="1" stop-color="#FFAE00"/>
</linearGradient>
</defs>
</svg>
