<svg width="26" height="26" viewBox="0 0 26 26" fill="none" xmlns="http://www.w3.org/2000/svg">
<g clip-path="url(#clip0_119_181)">
<mask id="mask0_119_181" style="mask-type:luminance" maskUnits="userSpaceOnUse" x="0" y="0" width="26" height="26">
<path d="M5.50826 0H20.4917C23.5331 0 26 2.46688 26 5.50867V20.4917C26 23.5331 23.5331 26 20.4917 26H5.50826C2.46688 26 0 23.5331 0 20.4917V5.50867C0 2.46688 2.46688 0 5.50867 0L5.50826 0Z" fill="white"/>
</mask>
<g mask="url(#mask0_119_181)">
<path d="M26 0H0V26H26V0Z" fill="#005BFF"/>
<path fill-rule="evenodd" clip-rule="evenodd" d="M12.2087 13.1774L11.8178 11.6946L14.3978 10L17.4837 10.208L17.934 11.6571L32 26.4722L10 33L12.2087 13.1774Z" fill="#F91155"/>
<path fill-rule="evenodd" clip-rule="evenodd" d="M2.62304 17.4827C1.65115 17.8745 0.56512 17.2424 0.415408 16.1979C0.312842 15.486 0.714419 14.7846 1.37696 14.5177C2.34926 14.1259 3.43488 14.758 3.58501 15.8025C3.68716 16.5144 3.28558 17.2158 2.62304 17.4827ZM1.50144 13.0355C-0.377405 13.3314 -1.48081 15.2595 -0.795111 17.0477C-0.287661 18.3707 1.10855 19.1834 2.49856 18.9645C4.3774 18.669 5.48081 16.7409 4.79511 14.9527C4.28766 13.6297 2.89145 12.8166 1.50144 13.0355Z" fill="white"/>
<path fill-rule="evenodd" clip-rule="evenodd" d="M5.49194 12.1423C5.09303 12.2547 4.87775 12.7299 5.07311 13.1472C5.21649 13.4535 5.55719 13.5946 5.86663 13.5076L7.66309 13.0025L5.87132 17.72C5.81232 17.8746 5.94633 18.0357 6.09793 17.993L10.4832 16.7598C10.7926 16.6728 11.0204 16.3723 10.9985 16.0316C10.9689 15.5675 10.5559 15.269 10.157 15.3813L7.96824 15.9967L9.75884 11.2826C9.81823 11.1263 9.68304 10.964 9.52989 11.007L5.49194 12.1423Z" fill="white"/>
<path fill-rule="evenodd" clip-rule="evenodd" d="M24.6393 7.08227C24.3318 7.23947 24.1902 7.60755 24.2801 7.94538L24.9133 10.3187L20.293 8.28278C20.1318 8.21164 19.9618 8.36032 20.0076 8.53157L21.3147 13.4316C21.4046 13.7694 21.7108 14.0174 22.0556 13.999C22.5366 13.9735 22.844 13.5164 22.7253 13.0725L22.087 10.6787L26.7073 12.715C26.8684 12.7858 27.0385 12.6375 26.9923 12.4658L25.6809 7.54833C25.5622 7.104 25.0685 6.86287 24.6393 7.08227Z" fill="white"/>
<path fill-rule="evenodd" clip-rule="evenodd" d="M14.2334 9.18513C12.0658 9.75679 10.6514 11.4804 11.0749 13.035C11.4981 14.5897 13.5986 15.3866 15.7662 14.8149C17.9342 14.2433 19.3486 12.5197 18.9251 10.965C18.5019 9.40996 16.4015 8.61347 14.2334 9.18513ZM14.5914 10.4989C16.0888 10.104 17.4237 10.6014 17.6168 11.3099C17.8095 12.0184 16.9064 13.1062 15.4086 13.5011C13.9112 13.896 12.5763 13.3987 12.3832 12.6902C12.1901 11.9816 13.0936 10.8939 14.5914 10.4989Z" fill="white"/>
</g>
</g>
<defs>
<clipPath id="clip0_119_181">
<rect width="26" height="26" fill="white"/>
</clipPath>
</defs>
</svg>
