<svg width="695" height="609" viewBox="0 0 695 609" fill="none" xmlns="http://www.w3.org/2000/svg">
<path fill-rule="evenodd" clip-rule="evenodd" d="M388.497 609C524.406 609 639.887 515.835 675 389.776C632.348 267.948 529.289 165.922 342.416 165C410.487 176.646 503.619 219.521 508.609 309.341C508.609 309.359 508.609 309.377 508.609 309.395C508.609 309.413 508.609 309.432 508.609 309.45C508.609 309.468 508.609 309.486 508.609 309.504C510.386 389.36 446.013 455.726 366.686 455.726C297.215 455.726 227.51 455.798 158.182 455.798C66.2351 455.671 1 519.234 1 609C194.354 609 195.161 609 388.497 609Z" fill="#F1F3F8"/>
<path fill-rule="evenodd" clip-rule="evenodd" d="M680.793 383C690.007 354.045 695 323.231 695 291.316C695 124.52 559.107 0.0180516 393.184 0.0180516C197.014 0.0180516 196.188 0 0 0C0 90.6369 66.3658 155.424 159.942 155.099C228.41 154.846 297.506 153.853 365.901 154.72C515.193 156.633 640.74 245.501 680.793 383Z" fill="#F1F3F8"/>
<path fill-rule="evenodd" clip-rule="evenodd" d="M155 239.537C259.674 239.537 423 224.455 423 354.085C296.97 354.085 155 372.937 155 239.537Z" fill="#F1F3F8"/>
</svg>
