<svg width="20" height="20" viewBox="0 0 20 20" fill="none" xmlns="http://www.w3.org/2000/svg">
<path d="M17.9991 13.9289V17.072C17.9992 17.297 17.914 17.5138 17.7605 17.6784C17.6071 17.843 17.397 17.9434 17.1725 17.9591C16.7844 17.9864 16.4673 18 16.2214 18C8.36676 18 2 11.6329 2 3.77778C2 3.53244 2.01363 3.21541 2.04089 2.82667C2.05664 2.60217 2.15695 2.39201 2.32159 2.23859C2.48622 2.08516 2.70291 1.9999 2.92795 2H6.07088C6.18114 1.99989 6.28749 2.04076 6.36929 2.11468C6.4511 2.18861 6.5025 2.2903 6.51353 2.4C6.53367 2.60385 6.55264 2.76741 6.57041 2.89067C6.74704 4.12349 7.10904 5.32252 7.64413 6.44711C7.72857 6.62489 7.67346 6.83733 7.51347 6.95111L5.59536 8.32178C6.76837 11.0545 8.94604 13.2323 11.6786 14.4053L13.0474 12.4907C13.1031 12.4122 13.1847 12.3558 13.2779 12.3316C13.3711 12.3074 13.4698 12.3168 13.5567 12.3582C14.6811 12.8923 15.8797 13.2535 17.1121 13.4293C17.2353 13.4471 17.3983 13.4661 17.6009 13.4862C17.7104 13.4975 17.8119 13.549 17.8857 13.6307C17.9594 13.7125 17.9992 13.8188 17.9991 13.9289Z" fill="#FFAE00"/>
</svg>
