<svg width="20" height="20" viewBox="0 0 20 20" fill="none" xmlns="http://www.w3.org/2000/svg">
<path d="M16.084 15.1667L18.7748 17.8561C18.9003 17.986 18.9697 18.16 18.9681 18.3406C18.9666 18.5212 18.8941 18.694 18.7664 18.8217C18.6387 18.9495 18.4659 19.0219 18.2853 19.0235C18.1046 19.0251 17.9306 18.9556 17.8007 18.8301L15.11 16.1394C13.3516 17.6459 11.0781 18.4128 8.76653 18.2792C6.45494 18.1455 4.28495 17.1218 2.71191 15.4227C1.13886 13.7237 0.28504 11.4814 0.329602 9.16634C0.374165 6.85132 1.31365 4.64354 2.95092 3.00627C4.58818 1.36901 6.79596 0.429524 9.11098 0.384961C11.426 0.340399 13.6683 1.19422 15.3674 2.76727C17.0664 4.34031 18.0902 6.5103 18.2238 8.82189C18.3574 11.1335 17.5905 13.407 16.084 15.1653V15.1667ZM9.28344 16.9164C11.2932 16.9164 13.2206 16.1181 14.6416 14.697C16.0627 13.2759 16.8611 11.3485 16.8611 9.3388C16.8611 7.32909 16.0627 5.40169 14.6416 3.9806C13.2206 2.55952 11.2932 1.76116 9.28344 1.76116C7.27373 1.76116 5.34633 2.55952 3.92524 3.9806C2.50416 5.40169 1.70581 7.32909 1.70581 9.3388C1.70581 11.3485 2.50416 13.2759 3.92524 14.697C5.34633 16.1181 7.27373 16.9164 9.28344 16.9164Z" fill="#466675"/>
</svg>
