<svg width="20" height="20" viewBox="0 0 20 20" fill="none" xmlns="http://www.w3.org/2000/svg">
<path d="M16.084 15.1667L18.7747 17.8561C18.9002 17.986 18.9696 18.16 18.9681 18.3406C18.9665 18.5212 18.894 18.694 18.7663 18.8217C18.6386 18.9495 18.4658 19.0219 18.2852 19.0235C18.1046 19.0251 17.9306 18.9556 17.8006 18.8301L15.1099 16.1394C13.3516 17.6459 11.0781 18.4128 8.76647 18.2792C6.45488 18.1455 4.28489 17.1218 2.71185 15.4227C1.1388 13.7237 0.284979 11.4814 0.329541 9.16634C0.374104 6.85132 1.31359 4.64354 2.95086 3.00627C4.58812 1.36901 6.7959 0.429524 9.11092 0.384961C11.4259 0.340399 13.6682 1.19422 15.3673 2.76727C17.0664 4.34031 18.0901 6.5103 18.2237 8.82189C18.3574 11.1335 17.5905 13.407 16.084 15.1653V15.1667ZM9.28338 16.9164C11.2931 16.9164 13.2205 16.1181 14.6416 14.697C16.0627 13.2759 16.861 11.3485 16.861 9.3388C16.861 7.32909 16.0627 5.40169 14.6416 3.9806C13.2205 2.55952 11.2931 1.76116 9.28338 1.76116C7.27367 1.76116 5.34627 2.55952 3.92518 3.9806C2.5041 5.40169 1.70574 7.32909 1.70574 9.3388C1.70574 11.3485 2.5041 13.2759 3.92518 14.697C5.34627 16.1181 7.27367 16.9164 9.28338 16.9164Z" fill="white"/>
</svg>
