<svg width="20" height="20" viewBox="0 0 20 20" fill="none" xmlns="http://www.w3.org/2000/svg">
<path fill-rule="evenodd" clip-rule="evenodd" d="M5.91746 0C7.01628 0 8.08317 0.308684 9.00143 0.877871C9.32831 0.842938 9.65744 0.825334 9.98746 0.825334C11.202 0.825334 12.4047 1.06377 13.5268 1.52701C14.6489 1.99026 15.6684 2.66925 16.5273 3.52522C17.3861 4.38119 18.0673 5.39738 18.5321 6.51576C18.9969 7.63414 19.2361 8.83281 19.2361 10.0433C19.2361 10.4735 19.2059 10.9022 19.1461 11.3263C19.2596 11.5276 19.3611 11.7358 19.4501 11.95C19.7437 12.6564 19.8948 13.4134 19.8948 14.178C19.8948 14.9426 19.7437 15.6996 19.4501 16.406C19.1566 17.1123 18.7263 17.7542 18.1839 18.2948C17.6415 18.8354 16.9975 19.2642 16.2888 19.5568C15.5801 19.8494 14.8206 20 14.0535 20C13.0027 20 11.9811 19.7178 11.0906 19.1955C10.7253 19.2393 10.3569 19.2613 9.98746 19.2613C8.77291 19.2613 7.57025 19.0229 6.44815 18.5597C5.32605 18.0964 4.30648 17.4174 3.44766 16.5614C2.58885 15.7055 1.90759 14.6893 1.44281 13.5709C0.978016 12.4525 0.738792 11.2539 0.738792 10.0433C0.738792 9.59008 0.772331 9.13848 0.838692 8.69214C0.3445 7.82399 0.078125 6.83568 0.078125 5.82C0.078125 4.27644 0.693339 2.7961 1.78843 1.70464C2.88351 0.613177 4.36877 0 5.91746 0ZM6.47546 8.762C6.70116 9.14834 7.01304 9.47734 7.38679 9.72333C7.88199 10.0473 8.40839 10.3209 8.95813 10.54C9.57279 10.7969 10.0497 11.0147 10.3888 11.1933C10.6755 11.3344 10.9358 11.5238 11.1581 11.7533C11.3264 11.9319 11.4199 12.168 11.4195 12.4133C11.4267 12.5863 11.3926 12.7586 11.32 12.9158C11.2475 13.073 11.1385 13.2106 11.0021 13.3173C10.6379 13.5624 10.2021 13.6786 9.76413 13.6473C9.51649 13.6499 9.26936 13.6244 9.02746 13.5713C8.83128 13.5283 8.6394 13.4676 8.45413 13.39C8.2919 13.3198 8.07035 13.2144 7.78946 13.074C7.56357 12.9535 7.31212 12.8888 7.05613 12.8853C6.82637 12.8759 6.60179 12.9552 6.42879 13.1067C6.34628 13.1852 6.28179 13.2807 6.23978 13.3866C6.19777 13.4925 6.17923 13.6063 6.18546 13.72C6.1803 13.9357 6.24534 14.1472 6.37079 14.3227C6.5219 14.5142 6.71729 14.6661 6.94013 14.7653C7.81179 15.1431 8.7567 15.3219 9.70613 15.2887C10.397 15.3026 11.0847 15.1905 11.7355 14.958C12.2754 14.7663 12.7456 14.4173 13.0855 13.956C13.4192 13.4688 13.5883 12.8876 13.5681 12.2973C13.5811 11.8153 13.4604 11.339 13.2195 10.9213C12.9748 10.5239 12.6451 10.1856 12.2541 9.93067C11.7591 9.61132 11.2339 9.34136 10.6861 9.12467C10.6276 9.09598 10.567 9.07169 10.5048 9.052C9.94346 8.82 9.52124 8.63378 9.23813 8.49333C8.98537 8.37485 8.75648 8.21103 8.56279 8.01C8.3998 7.83888 8.30988 7.61098 8.31213 7.37467C8.30432 7.19467 8.34499 7.01588 8.4299 6.85698C8.5148 6.69807 8.64082 6.56489 8.79479 6.47133C9.15966 6.2538 9.57963 6.14638 10.0041 6.162C10.3298 6.15859 10.6545 6.19895 10.9695 6.282C11.3116 6.38067 11.6464 6.50319 11.9715 6.64867C12.1033 6.70986 12.2468 6.74214 12.3921 6.74333C12.4978 6.74614 12.6028 6.72656 12.7004 6.68588C12.7979 6.64521 12.8858 6.58436 12.9581 6.50733C13.0346 6.42374 13.0939 6.32591 13.1325 6.21941C13.1712 6.11292 13.1885 5.99985 13.1835 5.88667C13.1869 5.6688 13.1108 5.45716 12.9695 5.29133C12.7776 5.08979 12.5397 4.93787 12.2761 4.84867C11.9891 4.74326 11.6923 4.66666 11.3901 4.62C10.9679 4.55075 10.5406 4.51796 10.1128 4.522C9.45893 4.51813 8.80933 4.62752 8.19279 4.84533C7.62592 5.03671 7.11987 5.37485 6.72613 5.82533C6.34726 6.27393 6.14694 6.84639 6.16346 7.43333C6.15001 7.89583 6.25756 8.35383 6.47546 8.762Z" fill="url(#paint0_linear_258_575)"/>
<defs>
<linearGradient id="paint0_linear_258_575" x1="6.37813" y1="3.79267" x2="15.6055" y2="19.7747" gradientUnits="userSpaceOnUse">
<stop stop-color="#00B7F0"/>
<stop offset="1" stop-color="#007CC1"/>
</linearGradient>
</defs>
</svg>
