<svg width="20" height="22" viewBox="0 0 20 22" fill="none" xmlns="http://www.w3.org/2000/svg">
<g opacity="0.6">
<path d="M6.99352 6.33068C7.17077 6.33793 7.36687 6.34623 7.55318 6.76038C7.68051 7.04351 7.89475 7.57133 8.06549 7.99196C8.1913 8.30192 8.29349 8.55368 8.31987 8.60644C8.38205 8.73081 8.42348 8.87603 8.34058 9.04211C8.32817 9.06693 8.31669 9.09036 8.30573 9.11275C8.24342 9.23991 8.19764 9.33335 8.09213 9.45683C8.05078 9.50511 8.00803 9.55712 7.96527 9.60912C7.87943 9.71354 7.79357 9.81797 7.71902 9.89236C7.59427 10.0163 7.4647 10.1511 7.60978 10.3998C7.75491 10.6488 8.25406 11.4629 8.99339 12.122C9.78763 12.8302 10.4776 13.1297 10.828 13.2818C10.8968 13.3117 10.9525 13.3359 10.9934 13.3564C11.2421 13.4807 11.3872 13.46 11.5323 13.2938C11.6774 13.1279 12.1537 12.5679 12.3196 12.3192C12.4854 12.0702 12.6512 12.1117 12.8792 12.1946C13.1072 12.2775 14.3299 12.8792 14.5786 13.0036C14.6271 13.0278 14.6724 13.0497 14.7145 13.07C14.8881 13.1538 15.0053 13.2103 15.0553 13.2938C15.1175 13.3978 15.1175 13.8955 14.9103 14.4762C14.703 15.0569 13.6876 15.617 13.2316 15.6585C13.1877 15.6624 13.1441 15.6676 13.0992 15.6729C12.6778 15.7224 12.1459 15.785 10.2472 15.0362C7.91084 14.1149 6.37038 11.8317 6.05212 11.36C6.02602 11.3213 6.00814 11.2948 5.99872 11.2823L5.99595 11.2786C5.86184 11.0994 4.9832 9.92512 4.9832 8.7101C4.9832 7.56477 5.54618 6.9644 5.80521 6.68817C5.82291 6.6693 5.8392 6.65193 5.85378 6.63601C6.08161 6.38713 6.35111 6.32485 6.5169 6.32485C6.52599 6.32485 6.53508 6.32485 6.54417 6.32485C6.70075 6.32483 6.85653 6.32481 6.99352 6.33068Z" fill="#466675"/>
<path fill-rule="evenodd" clip-rule="evenodd" d="M1.4257 15.8806C0.54217 14.3746 0.0803214 12.6678 0.0803214 10.9007C0.0803214 5.41877 4.55823 0.960938 10.0402 0.960938C12.7108 0.960938 15.2008 2.00511 17.0884 3.87258C18.9558 5.76013 20 8.25009 20 10.9208C20 16.4027 15.5221 20.8605 10.0402 20.8605C8.37349 20.8605 6.72691 20.4589 5.28113 19.6557L0 21.0413L1.4257 15.8806ZM3.03213 15.3184L3.23293 15.6196L2.38956 18.6718L5.52209 17.8485L5.82329 18.0292C7.08835 18.7923 8.55422 19.1939 10.0402 19.1939C14.5984 19.1939 18.3133 15.479 18.3133 10.9208C18.3133 8.71194 17.4498 6.62359 15.8835 5.05732C14.3373 3.51114 12.249 2.64768 10.0402 2.64768C5.48193 2.64768 1.76707 6.34246 1.76707 10.9208C1.76707 12.467 2.20883 13.9931 3.03213 15.3184Z" fill="#466675"/>
</g>
</svg>
