<svg width="26" height="26" viewBox="0 0 26 26" fill="none" xmlns="http://www.w3.org/2000/svg">
<g clip-path="url(#clip0_119_195)">
<path d="M0 12.206C0 7.93347 0 5.79724 0.831485 4.16537C1.56288 2.72992 2.72992 1.56288 4.16537 0.831485C5.79724 0 7.93347 0 12.206 0H13.794C18.0665 0 20.2028 0 21.8346 0.831485C23.2701 1.56288 24.4371 2.72992 25.1685 4.16537C26 5.79724 26 7.93347 26 12.206V13.794C26 18.0665 26 20.2028 25.1685 21.8346C24.4371 23.2701 23.2701 24.4371 21.8346 25.1685C20.2028 26 18.0665 26 13.794 26H12.206C7.93347 26 5.79724 26 4.16537 25.1685C2.72992 24.4371 1.56288 23.2701 0.831485 21.8346C0 20.2028 0 18.0665 0 13.794V12.206Z" fill="url(#paint0_linear_119_195)"/>
<path d="M20.4282 9.7606C19.4773 9.7606 18.6187 10.0519 17.8855 10.5505V6H15.8573V14.3921C15.8573 16.9453 17.9078 19 20.417 19C22.9262 19 25 16.9576 25 14.3685C25 11.7794 22.9717 9.7606 20.4282 9.7606ZM11.2237 14.985L9.36763 10.0868H7.94695L6.0797 14.985L4.21251 10.0868H2L5.2656 18.6994H6.68628L8.64562 13.5694L10.6161 18.6994H12.0368L15.2913 10.0868H13.0909L11.2237 14.985ZM20.418 16.9463C19.0429 16.9463 17.8855 15.8323 17.8855 14.3808C17.8855 12.9293 18.9741 11.8276 20.4292 11.8276C21.8842 11.8276 22.9728 12.9765 22.9728 14.3808C22.9728 15.7851 21.8154 16.9463 20.418 16.9463Z" fill="white"/>
</g>
<defs>
<linearGradient id="paint0_linear_119_195" x1="8.74548" y1="28.2455" x2="24.7" y2="1.65455" gradientUnits="userSpaceOnUse">
<stop stop-color="#6F01FB"/>
<stop offset="1" stop-color="#FF49D7"/>
</linearGradient>
<clipPath id="clip0_119_195">
<rect width="26" height="26" fill="white"/>
</clipPath>
</defs>
</svg>
