<svg width="20" height="20" viewBox="0 0 20 20" fill="none" xmlns="http://www.w3.org/2000/svg">
<path d="M11.6 18H8.4C5.38301 18 3.87452 18 2.93726 17.0237C2 16.0474 2 14.476 2 11.3333V9.66667C2 6.52397 2 4.95262 2.93726 3.97631C3.87452 3 5.38301 3 8.4 3H11.6C14.617 3 16.1255 3 17.0627 3.97631C18 4.95262 18 6.52397 18 9.66667V11.3333C18 14.476 18 16.0474 17.0627 17.0237C16.5402 17.568 15.8401 17.8089 14.8 17.9154" stroke="#A8B2BE" stroke-width="1.5" stroke-linecap="round"/>
<path d="M6 3V2" stroke="#A8B2BE" stroke-width="1.5" stroke-linecap="round"/>
<path d="M14 3V2" stroke="#A8B2BE" stroke-width="1.5" stroke-linecap="round"/>
<path d="M18 7H14H9.17949M2 7H5.17949" stroke="#A8B2BE" stroke-width="1.5" stroke-linecap="round"/>
<path d="M15 14C15 14.5523 14.5523 15 14 15C13.4477 15 13 14.5523 13 14C13 13.4477 13.4477 13 14 13C14.5523 13 15 13.4477 15 14Z" fill="#A8B2BE"/>
<path d="M15 10C15 10.5523 14.5523 11 14 11C13.4477 11 13 10.5523 13 10C13 9.44772 13.4477 9 14 9C14.5523 9 15 9.44772 15 10Z" fill="#A8B2BE"/>
<path d="M11 14C11 14.5523 10.5523 15 10 15C9.44772 15 9 14.5523 9 14C9 13.4477 9.44772 13 10 13C10.5523 13 11 13.4477 11 14Z" fill="#A8B2BE"/>
<path d="M11 10C11 10.5523 10.5523 11 10 11C9.44772 11 9 10.5523 9 10C9 9.44772 9.44772 9 10 9C10.5523 9 11 9.44772 11 10Z" fill="#A8B2BE"/>
<path d="M7 14C7 14.5523 6.55228 15 6 15C5.44772 15 5 14.5523 5 14C5 13.4477 5.44772 13 6 13C6.55228 13 7 13.4477 7 14Z" fill="#A8B2BE"/>
<path d="M7 10C7 10.5523 6.55228 11 6 11C5.44772 11 5 10.5523 5 10C5 9.44772 5.44772 9 6 9C6.55228 9 7 9.44772 7 10Z" fill="#A8B2BE"/>
</svg>
